<?xml version="1.0" encoding="utf-8"?>
<!-- Generator: Adobe Illustrator 16.0.0, SVG Export Plug-In . SVG Version: 6.00 Build 0)  -->
<!DOCTYPE svg PUBLIC "-//W3C//DTD SVG 1.1//EN" "http://www.w3.org/Graphics/SVG/1.1/DTD/svg11.dtd">
<svg version="1.1" id="Capa_1" xmlns="http://www.w3.org/2000/svg" xmlns:xlink="http://www.w3.org/1999/xlink" x="0px" y="0px"
	 width="36.932px" height="35.5px" viewBox="0 8.5 36.932 35.5" enable-background="new 0 8.5 36.932 35.5" xml:space="preserve">
<g>
	<g>
		<path fill="#FFFFFF" d="M19.496,27.339c1.124-0.535,1.49-2.109,0.823-3.508c-0.669-1.403-2.123-2.109-3.246-1.575
			c-1.123,0.536-1.489,2.11-0.821,3.513C16.921,27.171,18.375,27.877,19.496,27.339z"/>
		<path fill="#FFFFFF" d="M22.863,18.966c1.08,6.759-3.73,11.826-3.73,11.826s-3.965-6.71-10.634-8.735
			c12.972,9.485,5.589,21.311,5.589,21.311h3.755C17.843,43.368,26.571,28.305,22.863,18.966z"/>
		<path fill="#FFFFFF" d="M15.542,19.738c-0.073-0.108-0.146-0.222-0.22-0.349c-0.343-0.593-0.5-1.143-0.5-1.143
			s0.396,0.415,0.739,1.004c0.071,0.125,0.133,0.248,0.191,0.365c0.053-0.281,0.117-0.861-0.157-1.339
			c-0.378-0.654-1.25-0.858-1.25-0.858s-0.26,0.858,0.119,1.513C14.737,19.408,15.271,19.643,15.542,19.738z"/>
		<path fill="#FFFFFF" d="M24.154,24.71c0.218,0.187,0.688,0.531,1.238,0.531c0.757,0,1.368-0.654,1.368-0.654
			s-0.61-0.653-1.368-0.653c-0.55,0-1.02,0.344-1.238,0.531c0.13-0.009,0.265-0.016,0.412-0.016c0.684,0,1.243,0.136,1.243,0.136
			s-0.559,0.138-1.243,0.137C24.418,24.727,24.283,24.719,24.154,24.71z"/>
		<path fill="#FFFFFF" d="M21.406,19.252c0.341-0.593,0.739-1.006,0.739-1.006s-0.158,0.553-0.501,1.146
			c-0.073,0.125-0.146,0.241-0.221,0.349c0.274-0.095,0.807-0.331,1.08-0.805c0.379-0.657,0.122-1.515,0.122-1.515
			s-0.873,0.206-1.25,0.859c-0.274,0.476-0.213,1.055-0.158,1.339C21.269,19.5,21.332,19.377,21.406,19.252z"/>
		<path fill="#FFFFFF" d="M18.177,15.684c0-1.523,0.306-2.757,0.306-2.757s0.307,1.236,0.307,2.757c0,0.322-0.015,0.626-0.039,0.915
			c0.419-0.484,1.184-1.532,1.184-2.754c0-1.682-1.452-3.044-1.452-3.044s-1.452,1.362-1.452,3.044c0,1.223,0.765,2.27,1.183,2.754
			C18.192,16.311,18.177,16.008,18.177,15.684z"/>
		<path fill="#FFFFFF" d="M8.453,20.474c1.06,0.612,2.349,0.472,2.978,0.352c-0.26-0.122-0.533-0.265-0.811-0.424
			c-1.319-0.76-2.234-1.643-2.234-1.643s1.221,0.352,2.54,1.113c0.279,0.162,0.535,0.325,0.774,0.49
			c-0.208-0.606-0.732-1.792-1.793-2.402c-1.454-0.842-3.361-0.266-3.361-0.266S6.997,19.635,8.453,20.474z"/>
		<path fill="#FFFFFF" d="M28.51,28.7c-1.059-0.61-2.347-0.473-2.976-0.353c0.261,0.124,0.533,0.266,0.812,0.425
			c1.317,0.761,2.234,1.643,2.234,1.643s-1.221-0.351-2.542-1.111c-0.279-0.163-0.535-0.327-0.772-0.492
			c0.208,0.606,0.731,1.791,1.791,2.402c1.454,0.842,3.362,0.266,3.362,0.266S29.965,29.539,28.51,28.7z"/>
		<path fill="#FFFFFF" d="M11.698,28.815c-0.239,0.163-0.494,0.327-0.773,0.49c-1.318,0.758-2.541,1.114-2.541,1.114
			s0.916-0.883,2.234-1.644c0.28-0.163,0.552-0.3,0.812-0.426c-0.628-0.122-1.918-0.261-2.977,0.353
			c-1.456,0.839-1.911,2.779-1.911,2.779s1.906,0.576,3.362-0.264C10.966,30.603,11.49,29.419,11.698,28.815z"/>
		<path fill="#FFFFFF" d="M25.267,20.359c0.237-0.164,0.494-0.327,0.775-0.489c1.317-0.761,2.539-1.113,2.539-1.113
			s-0.915,0.882-2.234,1.643c-0.279,0.162-0.552,0.303-0.81,0.424c0.627,0.121,1.917,0.262,2.974-0.352
			c1.458-0.84,1.91-2.78,1.91-2.78s-1.905-0.575-3.359,0.267C25.999,18.57,25.474,19.754,25.267,20.359z"/>
		<path fill="#FFFFFF" d="M12.815,15.493c-0.217-0.319-0.439-0.663-0.655-1.038c-1.021-1.766-1.494-3.406-1.494-3.406
			s1.183,1.228,2.203,2.998c0.217,0.373,0.403,0.737,0.569,1.086c0.164-0.842,0.35-2.569-0.47-3.988
			c-1.126-1.953-3.727-2.562-3.727-2.562s-0.772,2.556,0.355,4.507C10.417,14.511,12.007,15.212,12.815,15.493z"/>
		<path fill="#FFFFFF" d="M24.151,33.682c0.218,0.319,0.441,0.662,0.657,1.036c1.022,1.773,1.494,3.408,1.494,3.408
			s-1.183-1.229-2.206-2.997c-0.216-0.375-0.403-0.739-0.569-1.087c-0.161,0.842-0.348,2.566,0.471,3.987
			c1.127,1.951,3.727,2.562,3.727,2.562s0.775-2.558-0.353-4.509C26.549,34.663,24.96,33.962,24.151,33.682z"/>
		<path fill="#FFFFFF" d="M6.546,24.999c-2.042,0-3.697-0.413-3.697-0.413s1.655-0.412,3.697-0.412c0.433,0,0.842,0.023,1.228,0.051
			c-0.648-0.562-2.052-1.588-3.693-1.588c-2.252,0.001-4.079,1.949-4.079,1.949s1.828,1.949,4.079,1.947
			c1.641,0,3.044-1.024,3.691-1.585C7.386,24.978,6.977,24.999,6.546,24.999z"/>
		<path fill="#FFFFFF" d="M32.885,22.642c-1.64,0-3.043,1.021-3.692,1.586c0.387-0.03,0.797-0.052,1.226-0.051
			c2.043,0,3.697,0.411,3.697,0.411s-1.653,0.412-3.694,0.412c-0.432,0-0.842-0.022-1.229-0.05c0.648,0.562,2.052,1.586,3.692,1.586
			c2.253,0,4.078-1.945,4.078-1.945S35.136,22.64,32.885,22.642z"/>
		<path fill="#FFFFFF" d="M12.87,35.131c-1.021,1.768-2.205,2.997-2.205,2.997s0.471-1.64,1.493-3.408
			c0.217-0.373,0.439-0.715,0.658-1.039c-0.81,0.281-2.4,0.984-3.221,2.404c-1.127,1.952-0.354,4.509-0.354,4.509
			s2.601-0.609,3.728-2.56c0.821-1.421,0.635-3.149,0.472-3.989C13.271,34.392,13.085,34.752,12.87,35.131z"/>
		<path fill="#FFFFFF" d="M24.096,14.044c1.021-1.768,2.203-2.996,2.203-2.996s-0.471,1.639-1.494,3.406
			c-0.215,0.371-0.437,0.718-0.654,1.037c0.809-0.28,2.399-0.982,3.218-2.401c1.128-1.952,0.355-4.511,0.355-4.511
			s-2.599,0.61-3.727,2.562c-0.824,1.42-0.636,3.148-0.474,3.989C23.693,14.784,23.878,14.42,24.096,14.044z"/>
	</g>
</g>
</svg>
